<svg xmlns="http://www.w3.org/2000/svg" viewBox="0 0 492.05 401.06"><defs><style>.cls-1,.cls-52{fill:#88b0c9;}.cls-1,.cls-51{opacity:0.5;}.cls-1,.cls-18,.cls-44,.cls-56{isolation:isolate;}.cls-2{fill:#c0dce5;}.cls-3{fill:#6c99a9;}.cls-4{fill:#7fa9be;}.cls-5{fill:#9ec0d5;}.cls-6{fill:#b1cee5;}.cls-7{fill:#2287ad;}.cls-8{fill:#258ebd;}.cls-9{fill:#d0d0d1;}.cls-10{fill:#97c1d8;}.cls-11{fill:#f9fcff;}.cls-12{fill:#c6e1eb;}.cls-13{fill:#e0f2fb;}.cls-14{fill:#e2e4ea;}.cls-15,.cls-44{fill:#44a46a;}.cls-16{fill:#5faf7b;}.cls-17{fill:#fff;}.cls-18,.cls-38{fill:#759db2;}.cls-18,.cls-44,.cls-56{opacity:0.3;}.cls-19{fill:#e2e8ea;}.cls-20{fill:#398e56;}.cls-21{fill:#cd291b;}.cls-22{fill:#dcdae8;}.cls-23{fill:#efedf8;}.cls-24{fill:#e23621;}.cls-25{fill:#d59587;}.cls-26{fill:#f7b196;}.cls-27{fill:#1c0d0c;}.cls-28,.cls-33,.cls-34,.cls-37,.cls-42,.cls-43,.cls-45,.cls-50,.cls-54,.cls-55{fill:none;}.cls-28,.cls-34,.cls-43{stroke:#d52e18;}.cls-28,.cls-33,.cls-34,.cls-43{stroke-linecap:round;stroke-linejoin:round;}.cls-28{stroke-width:0.21px;}.cls-29{fill:#cb2316;}.cls-30{fill:#bb1910;}.cls-31{fill:#bd7669;}.cls-32{fill:#c38177;}.cls-33{stroke:#7080af;}.cls-33,.cls-34,.cls-37{stroke-width:0.18px;}.cls-35{fill:#8499b5;}.cls-36{fill:#0f1c32;}.cls-37{stroke:#314671;}.cls-37,.cls-42,.cls-50,.cls-54,.cls-55{stroke-miterlimit:10;}.cls-39{fill:#fffdfe;}.cls-40{fill:#18687c;}.cls-41{fill:#b8c7e0;}.cls-42{stroke:#99abc7;}.cls-42,.cls-43{stroke-width:0.13px;}.cls-46{fill:#106d8e;}.cls-47{fill:#035268;}.cls-48{fill:#00353e;}.cls-49{fill:#1e88af;}.cls-50{stroke:#106d8e;stroke-width:0.65px;}.cls-53{fill:#e3ceab;}.cls-54{stroke:#1b6c3e;}.cls-54,.cls-55{stroke-width:0.5px;}.cls-55{stroke:#d27d00;}.cls-56{fill:#1b6c3e;}</style></defs><title>Ресурс 1</title><g id="Слой_2" data-name="Слой 2"><g id="Слой_1-2" data-name="Слой 1"><path class="cls-1" d="M49.2,324.3c79.86,18.3,104.28,20.82,131.67,11.4S147.77,295.25,129,297,49.2,324.3,49.2,324.3Z"/><ellipse class="cls-2" cx="281.33" cy="143.97" rx="122.01" ry="207.32" transform="translate(33.59 340.18) rotate(-65.48)"/><ellipse class="cls-2" cx="95.36" cy="98.73" rx="46.84" ry="102.58" transform="translate(-34.04 144.51) rotate(-65.48)"/><ellipse class="cls-2" cx="117.49" cy="174.83" rx="29.81" ry="102.58" transform="translate(-90.33 209.17) rotate(-65.48)"/><ellipse class="cls-2" cx="397.89" cy="227.75" rx="29.81" ry="102.58" transform="translate(25.55 495.25) rotate(-65.48)"/><path class="cls-1" d="M365.6,99.67q.86-11,2-21.78a3.65,3.65,0,0,0-3.63-3.63q-51.36,4.53-101.77,5.83-16,.41-31.88.5-10.58,0-21.08,0h0q-40.59-.37-80.54-2.88-14-.89-27.91-2-7.8-.66-15.57-1.39a3.66,3.66,0,0,0-3.63,3.63q.57,7,1.06,14h0q.28,3.87.52,7.75.89,13.83,1.47,27.76c3.45,6.36,11.92,20.11,21.18,21,0,0-13-.53-20.54-3.45,0,.19,0,.38,0,.57l18.24,14L87.9,151.34l6.49,6.36-8.93-3.22q.41,17.49.35,35.15-.11,55.44-4.3,112.59a3.66,3.66,0,0,0,3.63,3.63h79.28c-.29-3.44-.62-6.76-1-10,.39,3.2.73,6.5,1,10h50.45l27.94-5.47-7.94,5.47H363.93a3.64,3.64,0,0,0,3.63-3.63q-1.6-20.43-2.74-40.69C361.74,206.23,361.52,152.09,365.6,99.67ZM113.92,269.72h44.36c.35,1.19.68,2.4,1,3.63H113.91a1.82,1.82,0,0,1,0-3.63Zm-.2-60.11,1.33,1c-.44-.34-.88-.7-1.33-1Zm29.7,29.4q-.54-.75-1.11-1.5.57.75,1.11,1.5Zm-1.72-2.31-1.16-1.48,1.16,1.47Zm10.9,17.88c-.27-.59-.55-1.17-.84-1.75q.42.85.84,1.74Zm-1.21-2.5c-.41-.81-.82-1.61-1.25-2.4.43.78.84,1.58,1.25,2.39ZM150,249.51c-.4-.74-.8-1.47-1.22-2.19.42.72.83,1.45,1.23,2.18Zm-1.65-2.93-1-1.63c.33.53.66,1.08,1,1.63Zm-1.46-2.39q-.59-.93-1.2-1.86l1.2,1.85Zm-1.48-2.28c-.49-.73-1-1.46-1.51-2.19.51.72,1,1.45,1.51,2.18Zm-7.8-10.17-1.11-1.27.27.3.84,1Zm2.33,2.78c-.55-.68-1.11-1.36-1.69-2,.58.67,1.14,1.34,1.69,2Zm-5-5.72c-.32-.35-.64-.7-1-1,.34.34.65.69,1,1Zm-3.37-3.52-.16-.15.13.12Zm-2.89-2.81-1.07-1,1.07,1Zm-3.25-3-1-.91.27.23.74.68Zm27.49,36c.29.64.57,1.28.85,1.93-.27-.66-.56-1.3-.85-1.93Zm1.12,2.55c.35.83.69,1.67,1,2.51-.33-.85-.66-1.69-1-2.52Zm1.35,3.36c.22.59.44,1.18.66,1.79-.21-.61-.43-1.2-.66-1.79Zm1,2.85c.2.57.39,1.13.58,1.71l-.57-1.71Zm.93,2.76c.27.86.53,1.71.8,2.58-.26-.87-.52-1.73-.79-2.58Zm-40.34-54.63,1.38,1.12-1.37-1.12Zm3.32,2.73,1.27,1.07c-.41-.36-.84-.72-1.27-1.07Zm-9.14-7.3q-2-1.53-4.09-3.08c1.07.79,2.13,1.58,3.17,2.37.32.23.62.47.92.71ZM107,204.49l-2.47-1.81,1,.73c.5.35,1,.71,1.48,1.07Zm-4.38-3.19c-.61-.45-1.23-.89-1.86-1.34.64.44,1.25.89,1.87,1.33Zm-5.63-4-.44-.3.44.29Zm-4.54-3.15-.3-.21Zm21.5,86.7a1.82,1.82,0,1,1,0-3.63h46.31c.48,2.07.93,4.21,1.33,6.41-.17-.94-.35-1.86-.54-2.78Zm45.38-7.42c.32,1.22.63,2.47.92,3.75-.28-1.28-.59-2.54-.91-3.76ZM163,292.79c.13,1,.26,2,.38,3-.11-1-.24-2-.38-3Zm-1.44-9c.16.89.32,1.78.48,2.69-.15-.91-.31-1.81-.48-2.69Zm.52,3c.15.88.3,1.78.43,2.69q-.19-1.37-.42-2.7Zm.48,3c.14.91.27,1.84.4,2.78-.12-.94-.26-1.87-.4-2.79Z"/><path class="cls-1" d="M274.13,309c79.86,20.39,104.27,23.21,131.66,12.7s-33.1-45.09-51.86-43.15S274.13,309,274.13,309Z"/><path class="cls-3" d="M146.16,294.21H66.89a3.66,3.66,0,0,1-3.63-3.63q4.11-57.12,4.3-112.59c41.56,28.08,62.65,46.63,72.47,80.1H95.65a1.82,1.82,0,0,0,0,3.63H141c.34,1.25.65,2.53.95,3.83H95.64a1.82,1.82,0,0,0,0,3.63h47.1A210.87,210.87,0,0,1,146.16,294.21Z"/><path class="cls-4" d="M184.1,294.21H146.16c-2.84-34.6-10.66-55.93-27.62-75.08,2.66-5.67,5.63-16,3.45-32-.19-1.49-.44-3-.74-4.64,0-.13,0-.27-.08-.4q1.68,4,3.41,7.91h0c.7,1.6,1.41,3.21,2.13,4.81.32.73.65,1.45,1,2.17l.6,1.32c.32.74.66,1.46,1,2.19.59,1.28,1.17,2.56,1.78,3.83s1.11,2.42,1.7,3.63c.2.42.39.83.59,1.24.41.87.84,1.74,1.25,2.6.58,1.22,1.17,2.43,1.75,3.63C150.73,244.73,166.8,271.69,184.1,294.21Z"/><path class="cls-5" d="M216.61,294.21l7.94-5.48-27.94,5.48H184.1c-17.3-22.52-33.37-49.48-47.75-78.78-.58-1.2-1.17-2.41-1.75-3.63-.42-.86-.84-1.74-1.25-2.6-.2-.42-.4-.82-.59-1.24-.59-1.21-1.15-2.42-1.71-3.63s-1.19-2.55-1.77-3.84c-.34-.73-.68-1.45-1-2.18-.21-.44-.4-.88-.6-1.32-.33-.72-.65-1.45-1-2.18-.72-1.59-1.43-3.2-2.14-4.81h0c-1.14-2.62-2.28-5.26-3.4-7.91,0,.13.06.28.08.41.29,1.6.55,3.14.74,4.63,2.18,16-.79,26.35-3.46,32-1.63-1.86-3.37-3.7-5.2-5.52q-3.22-3.26-6.85-6.47c-4.36-3.88-9.15-7.76-14.41-11.76-1.57-1.2-3.19-2.4-4.84-3.62-5.5-4-11.49-8.21-18-12.6L67.55,178q0-17.66-.36-35.15l8.93,3.22-6.49-6.36,15.58,8.17L67,133.89c0-.19,0-.39,0-.57,7.58,2.92,20.54,3.45,20.54,3.45-9.26-.86-17.73-14.62-21.18-21q-.6-13.94-1.47-27.76c-.17-2.59-.34-5.18-.52-7.75v0c-.34-4.68-.68-9.35-1.07-14a3.65,3.65,0,0,1,3.63-3.63q7.78.74,15.57,1.39,13.92,1.14,27.91,2,40,2.53,80.54,2.88s0,0,0,0Q201.45,69,212,69q2.51,9.51,5.3,19.08c22.54,77.17,59,155.85,101.89,206.18Z"/><path class="cls-6" d="M346.55,249.89q1.14,20.24,2.75,40.69a3.65,3.65,0,0,1-3.63,3.63H319.2C276.28,243.88,239.85,165.2,217.31,88Q214.52,78.47,212,69q15.88-.08,31.89-.5,50.4-1.29,101.77-5.83a3.65,3.65,0,0,1,3.63,3.63q-1.11,10.85-2,21.78C343.26,140.45,343.48,194.59,346.55,249.89Z"/><path class="cls-7" d="M217.31,88H64.85c-.16-2.59-.34-5.18-.52-7.75l1.56.43c.76.22,1.52.42,2.29.61,1.22.32,2.46.62,3.7.91l1.79.4.57.13,1.91.38.86.17c.81.16,1.63.3,2.45.45s1.73.3,2.6.43l1.61.25c.51.08,1,.15,1.52.21.72.11,1.45.19,2.17.29l1.2.14,2.24.23,2.4.23c3.6.31,7.23.5,10.92.6l1.64,0c3.68,0,7.4,0,11.15-.18s7.62-.45,11.47-.84l3-.32q2.83-.35,5.7-.75l.11,0q4.29-.63,8.59-1.44l.15,0c1.9-.35,3.78-.74,5.67-1.14l.17,0c1-.21,1.94-.43,2.92-.66l2.29-.54,2.2-.55c2.06-.52,4.11-1.07,6.18-1.67.59-.16,1.17-.34,1.75-.51,1.06-.3,2.12-.63,3.19-1s1.94-.6,2.92-.93c.5-.15,1-.32,1.51-.49,1-.36,2.09-.71,3.13-1.08,1.25-.43,2.5-.89,3.76-1.36s2.3-.86,3.43-1.31c.19-.06.36-.13.54-.2,1.17-.46,2.33-.94,3.49-1.42.63-.25,1.26-.52,1.88-.79l.8-.34c.51-.21,1-.43,1.53-.67,1-.43,2-.87,3-1.33,1.28-.58,2.57-1.18,3.83-1.79h10.88c.35,1.38.72,2.78,1.08,4.17Q214.52,78.47,217.31,88Z"/><path class="cls-8" d="M349.3,66.25q-1.11,10.85-2,21.78h-130Q214.51,78.47,212,69c-.37-1.4-.74-2.79-1.09-4.17q15,0,30.81-.15c32.6-.28,67.53-.9,103.93-2A3.64,3.64,0,0,1,349.3,66.25Z"/><path class="cls-9" d="M334.3,71.58a3.75,3.75,0,1,1-3.76,3.75h0a3.75,3.75,0,0,1,3.75-3.75Z"/><path class="cls-6" d="M322.17,71.58a3.75,3.75,0,1,1-3.76,3.75h0A3.77,3.77,0,0,1,322.17,71.58Z"/><path class="cls-6" d="M310,71.58a3.75,3.75,0,1,1-3.75,3.75h0A3.75,3.75,0,0,1,310,71.58Z"/><rect class="cls-10" x="190.87" y="111.16" width="129.08" height="11.87"/><rect class="cls-11" x="93.8" y="213.79" width="67" height="38.31"/><rect class="cls-11" x="172.79" y="213.79" width="67" height="38.31"/><rect class="cls-11" x="251.76" y="213.79" width="67" height="38.31"/><path class="cls-12" d="M141,261.72H95.65a1.82,1.82,0,1,1,0-3.63H140C140.37,259.28,140.7,260.49,141,261.72Z"/><path class="cls-13" d="M160.81,259.9a1.85,1.85,0,0,1-1.85,1.83H141c-.31-1.23-.65-2.44-1-3.63H159A1.84,1.84,0,0,1,160.81,259.9Z"/><path class="cls-12" d="M142.75,269.18H95.65a1.82,1.82,0,1,1,0-3.63H142C142.24,266.75,142.5,268,142.75,269.18Z"/><path class="cls-13" d="M160.81,267.37a1.84,1.84,0,0,1-1.85,1.81H142.75c-.24-1.23-.51-2.44-.78-3.63h17A1.84,1.84,0,0,1,160.81,267.37Z"/><path class="cls-14" d="M131.74,273H95.64a1.84,1.84,0,0,0-1.84,1.82h0a1.83,1.83,0,0,0,1.84,1.81h36.1a1.83,1.83,0,0,0,1.85-1.81h0A1.85,1.85,0,0,0,131.74,273Z"/><path class="cls-13" d="M237.94,258.09H174.63a1.84,1.84,0,0,0-1.85,1.81h0a1.85,1.85,0,0,0,1.85,1.82h63.31a1.84,1.84,0,0,0,1.84-1.82h0A1.82,1.82,0,0,0,237.94,258.09Z"/><path class="cls-13" d="M237.94,265.56H174.63a1.84,1.84,0,0,0-1.85,1.81h0a1.85,1.85,0,0,0,1.85,1.82h63.31a1.84,1.84,0,0,0,1.84-1.82h0A1.83,1.83,0,0,0,237.94,265.56Z"/><path class="cls-13" d="M210.72,273H174.63a1.85,1.85,0,0,0-1.85,1.82h0a1.83,1.83,0,0,0,1.85,1.81h36.09a1.82,1.82,0,0,0,1.84-1.81h0A1.84,1.84,0,0,0,210.72,273Z"/><rect class="cls-14" x="251.76" y="258.09" width="67" height="3.63" rx="0.83" ry="0.83"/><rect class="cls-14" x="251.76" y="265.56" width="67" height="3.63" rx="0.83" ry="0.83"/><path class="cls-14" d="M289.7,273H253.61a1.84,1.84,0,0,0-1.84,1.82h0a1.82,1.82,0,0,0,1.84,1.81H289.7a1.82,1.82,0,0,0,1.84-1.81h0A1.84,1.84,0,0,0,289.7,273Z"/><path class="cls-15" d="M125.09,235.51l3.21-4.46,4.12,5.73H122.19l1.9-2.65,1,1.38Zm-.28-5.87a1.13,1.13,0,0,0,0,2.26,1.14,1.14,0,0,0,1.13-1.13,1.13,1.13,0,0,0-1.13-1.13Zm-4.4-2.84h-.55v12.29h14.89v-12.3H120.41Zm13.25,1.09H121V238h12.71Z"/><path class="cls-15" d="M204.07,235.51l3.21-4.46,4.12,5.73H201.17l1.9-2.65,1,1.38Zm-.28-5.87a1.13,1.13,0,1,0,1.12,1.13h0A1.13,1.13,0,0,0,203.79,229.64Zm-4.4-2.84h-.55v12.29h14.89v-12.3H199.39Zm13.25,1.09H199.93V238h12.71Z"/><path class="cls-16" d="M283.05,235.51l3.21-4.46,4.12,5.73H280.15l1.9-2.65,1,1.38Zm-.29-5.87a1.13,1.13,0,1,0,1.13,1.13,1.11,1.11,0,0,0-1.12-1.13Zm-4.4-2.84h-.54v12.29h14.89v-12.3H278.36Zm13.26,1.09H278.91V238h12.71Z"/><path class="cls-13" d="M254.54,188.33h-.94a1.82,1.82,0,0,1-1.84-1.81h0a1.82,1.82,0,0,1,1.18-1.69Z"/><path class="cls-17" d="M318.76,186.51a1.83,1.83,0,0,1-1.82,1.83h-62.4l-1.6-3.51a1.65,1.65,0,0,1,.66-.12h63.32A1.81,1.81,0,0,1,318.76,186.51Z"/><path class="cls-13" d="M258,195.79H253.6a1.82,1.82,0,0,1,0-3.63h2.72Q257.16,194,258,195.79Z"/><path class="cls-17" d="M318.76,194a1.82,1.82,0,0,1-1.84,1.81H258q-.87-1.81-1.71-3.63h60.6A1.84,1.84,0,0,1,318.76,194Z"/><path class="cls-13" d="M261.63,203.27h-8a1.82,1.82,0,0,1,0-3.63h6.27C260.45,200.86,261,202.07,261.63,203.27Z"/><path class="cls-17" d="M291.54,201.45a1.84,1.84,0,0,1-1.84,1.82H261.63c-.59-1.2-1.18-2.41-1.76-3.63H289.7A1.82,1.82,0,0,1,291.54,201.45Z"/><path class="cls-17" d="M316.92,160.74H253.61a1.82,1.82,0,0,0-1.84,1.81h0a1.84,1.84,0,0,0,1.84,1.82h63.31a1.85,1.85,0,0,0,1.85-1.82h0A1.83,1.83,0,0,0,316.92,160.74Z"/><path class="cls-17" d="M316.92,168.2H253.61a1.84,1.84,0,0,0-1.84,1.82h0a1.82,1.82,0,0,0,1.84,1.81h63.31a1.83,1.83,0,0,0,1.85-1.81h0A1.85,1.85,0,0,0,316.92,168.2Z"/><path class="cls-17" d="M289.7,175.68H253.61a1.82,1.82,0,0,0-1.84,1.81h0a1.82,1.82,0,0,0,1.84,1.81H289.7a1.82,1.82,0,0,0,1.84-1.81h0A1.82,1.82,0,0,0,289.7,175.68Z"/><path class="cls-17" d="M316.92,136.77H253.61a1.84,1.84,0,0,0-1.84,1.82h0a1.82,1.82,0,0,0,1.84,1.81h63.31a1.83,1.83,0,0,0,1.85-1.81h0A1.85,1.85,0,0,0,316.92,136.77Z"/><path class="cls-17" d="M316.92,144.24H253.61a1.84,1.84,0,0,0-1.84,1.82h0a1.82,1.82,0,0,0,1.84,1.81h63.31a1.83,1.83,0,0,0,1.85-1.81h0A1.85,1.85,0,0,0,316.92,144.24Z"/><path class="cls-17" d="M289.7,151.71H253.61a1.84,1.84,0,0,0-1.84,1.81h0a1.84,1.84,0,0,0,1.84,1.82H289.7a1.84,1.84,0,0,0,1.84-1.82h0A1.82,1.82,0,0,0,289.7,151.71Z"/><path class="cls-10" d="M239.78,136.77A398.6,398.6,0,0,0,241.44,204l-124.3,1.81L122.68,170Z"/><path class="cls-18" d="M87.61,182.65c-.84-21.91-.07-45.88,120.41-45.88L206.28,170,95.41,208.35Z"/><path class="cls-19" d="M222.8,199.63c-.62-1.28-1.24-2.56-1.84-3.84s-1.15-2.42-1.71-3.63-1.19-2.55-1.78-3.83-1.07-2.34-1.6-3.51c-6.83-15.13-13.21-30.73-19-46.54a6.62,6.62,0,0,1-.24-.62l-.74.06-3.05.26-.47,0-2.11.18-4.21.38-2.09.19-2.09.2c-2.64.26-5.26.52-7.86.8-3.61.38-7.17.79-10.65,1.23l-5,.65q-3.71.51-7.27,1.06l-1.5.24c-4.82.77-9.46,1.61-13.89,2.56-1.06.22-2.11.46-3.16.69l-2.25.53-2.64.65c-1.32.34-2.62.69-3.89,1.05l-1.6.46-1.46.44a99.11,99.11,0,0,0-12.89,4.86l-.73.34-.76.37c-.4.19-.79.4-1.18.6s-.58.3-.86.46-.75.4-1.11.61c-.74.41-1.46.84-2.14,1.28-.3.18-.59.37-.89.57l-.27.18c-.29.18-.57.38-.85.58l-1,.68c-.32.23-.62.47-.92.7s-.6.48-.88.72a31.41,31.41,0,0,0-2.33,2.14.52.52,0,0,0-.11.1v39.74H224.54C224,202.06,223.38,200.86,222.8,199.63Zm-105.67-5.87c-.34-4.35-8.15-21.82-21.78-29.57,5.1,2.23,21.1,9.83,22.53,17.59,0,0,38.14-33.18,75.18-42.61-49.05,21.29-75.93,54.59-75.93,54.59Z"/><path class="cls-11" d="M239.78,203.27H224.55c-.58-1.2-1.17-2.41-1.75-3.63s-1.24-2.57-1.84-3.85-1.15-2.42-1.71-3.63-1.19-2.55-1.78-3.83l-1.6-3.51C209,169.5,202.5,153.69,196.6,137.66l8.75-.69c.9-.08,1.79-.15,2.67-.2h31.76C237,161,237,183.13,239.78,203.27Z"/><path class="cls-15" d="M169.85,164.19,160,177.91l-3.06-4.26-5.86,8.14h31.47Zm-10.73,2.59a2.8,2.8,0,1,0-3.5-1.85,2.81,2.81,0,0,0,3.5,1.85h0ZM143.9,151.12v11.35l3.35-2.16v-5.83h39.09v31.08H147.25V166c-1.15.88-2.27,1.73-3.35,2.59v20.35h45.78V151.13Zm38.62,30.67-12.67-17.6L160,177.91l-3.06-4.25-5.86,8.13Zm-19.94-18.47a3.47,3.47,0,1,0-3.47,3.47h0a3.47,3.47,0,0,0,3.46-3.47Zm-3.46-3.47a3.47,3.47,0,1,0,3.46,3.47h0a3.48,3.48,0,0,0-3.46-3.47Zm10.73,4.34L160,177.91l-3.06-4.25-5.86,8.13h31.47Z"/><path class="cls-16" d="M229.88,143c-.27,3.66-.51,7.3-.73,10.88H213.48c.21-3.58.45-7.22.72-10.88Z"/><path class="cls-16" d="M229,157.39c-.19,3.7-.35,7.34-.45,10.88H212.84c.1-3.54.25-7.18.44-10.88Z"/><path class="cls-15" d="M214.91,182.64h-2c-.05-1.57-.09-3.17-.1-4.81C213.47,179.44,214.19,181,214.91,182.64Z"/><path class="cls-16" d="M228.54,182.64H214.91q-1.09-2.38-2.14-4.81h0c0-.81,0-1.64,0-2.47v-3.58h15.7C228.39,175.53,228.43,179.17,228.54,182.64Z"/><path class="cls-15" d="M221.55,197h-7.36A107.5,107.5,0,0,1,213,186.14h3.44c.32.73.66,1.46,1,2.19.59,1.28,1.17,2.56,1.78,3.83s1.12,2.42,1.71,3.63C221.15,196.21,221.35,196.61,221.55,197Z"/><path class="cls-16" d="M229.87,197h-8.32c-.2-.42-.4-.82-.59-1.24-.59-1.21-1.15-2.42-1.71-3.63s-1.19-2.55-1.78-3.83l-1-2.19h12.24A107.19,107.19,0,0,0,229.87,197Z"/><path class="cls-20" d="M147.25,160.32V166c-1.15.88-2.27,1.73-3.34,2.59v-6.08C145,161.76,146.11,161,147.25,160.32Z"/><ellipse class="cls-21" cx="128.23" cy="320.99" rx="6.99" ry="3.27" transform="translate(-58 29.8) rotate(-10.83)"/><path class="cls-22" d="M105.74,327.54c6.37-.36,13.23-1.26,17.48-1.88a7.87,7.87,0,0,0,6-4.5c8.51-18.8,9.4-38.7,4.41-59.44A82.74,82.74,0,0,1,101.88,303C108.07,312.93,108.17,322.91,105.74,327.54Z"/><path class="cls-23" d="M98.92,298.91a41.53,41.53,0,0,1,3,4.14,82.73,82.73,0,0,0,31.74-41.33,154.86,154.86,0,0,0-11-30.22C106.88,245.79,100.59,278.09,98.92,298.91Z"/><ellipse class="cls-21" cx="105.91" cy="327.54" rx="6.99" ry="3.27"/><path class="cls-24" d="M121.25,182.49a6.71,6.71,0,0,1-6.21-.15c.83-1.73,1.56-3.37,2.17-4.75a1.63,1.63,0,0,1,2.13-.85,1.65,1.65,0,0,1,1,1.14c.33,1.43.63,2.84.88,4.2C121.2,182.21,121.23,182.35,121.25,182.49Z"/><path class="cls-24" d="M94.51,181.48a8.06,8.06,0,0,0,5.9-.89c-.4-1.25-.81-2.48-1.25-3.69a2.09,2.09,0,0,0-4,.41C94.93,178.6,94.74,180,94.51,181.48Z"/><path class="cls-25" d="M118.54,219.13c-.37.79-.73,1.5-1.07,2.1a18.67,18.67,0,0,1-2.2,3.24,68.41,68.41,0,0,1-6,6.08c-.13-1.69-.45-5.48-1-10.39a33.57,33.57,0,0,0,5.06-6.56c4.36-7.22,7.09-16.65,8.65-26.49C124.17,203.08,121.2,213.46,118.54,219.13Z"/><path class="cls-25" d="M49.11,313.22c.13.45.29.88.44,1.31a26.72,26.72,0,0,0,6.13,10,9.16,9.16,0,0,0,2.74,1.86c2.69,1.1,14.49,2.08,25.2,2.76,9.92.63,18.91,1,18.91,1a4.4,4.4,0,0,0,3.2-2.64c2.44-4.62,2.33-14.6-3.85-24.49C86.63,313.24,68,317.74,49.11,313.22Z"/><path class="cls-26" d="M98.92,298.91a42.59,42.59,0,0,1,3,4.13c-15.25,10.2-33.84,14.7-52.77,10.19a25.81,25.81,0,0,1-1.32-9c.27-5.1,8.05-18.88,14.74-32.38a162.5,162.5,0,0,1,34.92-33.4C90.33,236.8,80,231.5,71,224c.27-.18.55-.36.81-.55s.65-.47,1-.72a20.71,20.71,0,0,0-2.37-3.83,17.9,17.9,0,0,0-4.66-4.23l-.79-.46-.83-.41a.61.61,0,0,0-.14-.07,2.57,2.57,0,0,0-.45-.2c-.29-.14-.59-.25-.89-.36l-.24-.08-.15-.06a12.16,12.16,0,0,0-1.34-.4l-.3-.07a3.9,3.9,0,0,0-.59-.14l-.23-.05-.16,0-.89-.14-.5.86a9.66,9.66,0,0,1-.9-1,6.65,6.65,0,0,1-.66-1,5.84,5.84,0,0,1-.35-.65,8.64,8.64,0,0,1-.78-3.12,10.16,10.16,0,0,1,0-1.56v0a10,10,0,0,1,.28-1.71,32.83,32.83,0,0,1,2.71-6.72c1.47-.43,3.37-.52,4.41.52,1.4,1.4-.16,3.56,1.44,5.88a11.29,11.29,0,0,0,3.69,2.74c4.93,5.35,11.15,8.36,18.32,8.26.6-1.41,1-2.54,1.11-2.91h0c.54-1.35,1.07-2.84,1.56-4.44.61-2,1.19-4.1,1.74-6.3h0c.44-1.83.86-3.7,1.24-5.59.73-3.6,1.38-7.23,1.92-10.58q.28-1.71.51-3.33a8.05,8.05,0,0,0,5.9-.88,157.43,157.43,0,0,1,4.41,17.35c4-3.73,7.62-10.2,10.22-15.6a6.71,6.71,0,0,0,6.21.14c.3,1.6.55,3.14.75,4.64-1.57,9.83-4.3,19.26-8.66,26.48a33.57,33.57,0,0,1-5.06,6.56c.57,4.91.89,8.7,1,10.39a69.82,69.82,0,0,0,6-6.08,18.85,18.85,0,0,0,2.2-3.24c1.86,3.45,3.61,6.86,5.21,10.27C106.88,245.79,100.59,278.09,98.92,298.91Z"/><path class="cls-24" d="M61.43,191.85a22.65,22.65,0,0,1,2.95-.59c2.8-.31,3.82,1.09,5.82,5.42,1.9,4.07,5.17,9.26,18.9,10.6.62-2,1.19-4.1,1.74-6.31h0c-4.67-13.1-6.39-16.25-15.53-19.9-3.33-1.33-3.34-4.54-1.87-8.24C70.06,177.93,65.22,185.24,61.43,191.85Z"/><path class="cls-23" d="M75.3,181.06c9.15,3.65,10.87,6.81,15.54,19.9,1.27-5.3,2.34-11.06,3.16-16.16q-5.23-7.12-11-14.31c-3.36,1.21-5.74.65-7.3-1.11l-.08.13-2.19,3.3h0C72,176.52,72,179.73,75.3,181.06Z"/><path class="cls-27" d="M75.72,169.38c1.56,1.76,3.93,2.32,7.3,1.11-.26-.32-.51-.66-.78-1C82.23,169.51,80.61,162,75.72,169.38Z"/><path class="cls-23" d="M58.52,197.24c1.48-.43,3.38-.52,4.42.51,1.4,1.39-.16,3.56,1.44,5.88a11.29,11.29,0,0,0,3.69,2.74,54,54,0,0,0,19.44,5.35h0c.54-1.35,1.06-2.83,1.55-4.44-13.73-1.34-17-6.53-18.9-10.6-2-4.33-3-5.72-5.82-5.42a22.65,22.65,0,0,0-2.95.59C60.35,193.72,59.37,195.54,58.52,197.24Z"/><path class="cls-28" d="M83.43,286.53a49.61,49.61,0,0,1,15.49,12.38"/><path class="cls-24" d="M59.85,222c.54,2,5.38.86,10.52-3.13a17.61,17.61,0,0,0-4.67-4.23C62.9,216.83,59.39,220.28,59.85,222Z"/><path class="cls-26" d="M55.49,224.48c1.36,2.56,5.12,3.36,9.45,2.22a21.83,21.83,0,0,0,7.79-4,21.2,21.2,0,0,0-2.36-3.83c-5.16,4-10,5.18-10.53,3.14-.46-1.75,3-5.19,5.86-7.37a17.75,17.75,0,0,0-7-2.48c-.15.27-.32.55-.49.86a34.79,34.79,0,0,0-2.38,5.19c-.07.19-.13.39-.19.58C55,220.94,54.72,223,55.49,224.48Z"/><path class="cls-29" d="M51.27,211.73c.89,1.4,3.73.71,5.36-.7a5.89,5.89,0,0,1-.34-.66,8.59,8.59,0,0,1-.78-3.11C51.72,208.69,50.26,210.09,51.27,211.73Z"/><path class="cls-25" d="M55.64,218.81c0-.19.12-.39.19-.58A35.26,35.26,0,0,1,58.21,213a7.91,7.91,0,0,1-.91-1,8.3,8.3,0,0,1-.67-1c-1.63,1.42-4.46,2.1-5.36.7-1-1.64.45-3,4.24-4.47a8.24,8.24,0,0,1,0-1.57v0c-5.37,1-7,0-7.77,3C46.6,213.28,52.07,217.82,55.64,218.81Z"/><path class="cls-28" d="M105.47,201.25c1.27,6.8,2.18,13.53,2.81,18.91"/><path class="cls-30" d="M70.07,400.92C91,399.66,97.56,389.51,95,381.54a122.67,122.67,0,0,1-22.79,2.14A30.26,30.26,0,0,0,70.07,400.92Z"/><path class="cls-21" d="M72.17,383.68A122.67,122.67,0,0,0,95,381.54c-1.66-5.1-7.07-9.32-14.84-9.74A43.23,43.23,0,0,0,72.17,383.68Z"/><path class="cls-31" d="M47.55,398.83a49,49,0,0,0,10.39,1.91,84.68,84.68,0,0,0,12.13.18,30.25,30.25,0,0,1,2.1-17.24,65.79,65.79,0,0,1-16.87-2.24c-.41.45-.79.91-1.17,1.36l-.26.33c-.32.41-.62.82-.91,1.24q-.1.13-.21.3c-.14.19-.27.39-.39.58s-.31.47-.45.7l0,.05c-.15.25-.31.51-.45.76s-.31.55-.46.82c-.28.53-.55,1.07-.79,1.61-.33.72-.63,1.46-.9,2.2-.07.18-.13.37-.19.55s-.18.51-.25.76l-.21.68c-.08.29-.16.57-.23.86s-.09.35-.13.53c-.09.38-.18.77-.26,1.16,0,.18-.08.37-.11.56s-.07.39-.11.58l-.09.59c0,.16-.05.33-.07.49S47.58,398.61,47.55,398.83Z"/><path class="cls-25" d="M55.53,381.19l-.23.25a65.35,65.35,0,0,0,16.87,2.24,43.08,43.08,0,0,1,8-11.88,24,24,0,0,0-5,.23,25.58,25.58,0,0,1-9,1.61l-1,0c-1.09.64-2.11,1.3-3.08,2-.32.22-.65.45-.95.68-.51.37-1,.75-1.49,1.13l-.56.46a36.73,36.73,0,0,0-2.76,2.54l-.33.34Z"/><path class="cls-30" d="M27.19,382.45c3.9,7.46,10.53,13.4,20.36,16.38l.09-.67c0-.17,0-.33.07-.5l.09-.58c0-.19.07-.39.11-.58s.07-.38.11-.57c.08-.39.16-.78.26-1.16,0-.17.08-.35.13-.52s.15-.57.23-.86.13-.46.2-.68.16-.51.25-.77.13-.37.2-.55c.26-.74.57-1.48.9-2.2.25-.54.51-1.08.79-1.61.15-.27.3-.55.46-.82l.45-.76,0,0c.15-.24.3-.47.46-.7s.25-.4.39-.59a1.61,1.61,0,0,1,.21-.3c.29-.42.59-.82.91-1.23l.26-.33c.38-.46.75-.92,1.17-1.37a52.79,52.79,0,0,1-17.45-8.52A30.16,30.16,0,0,0,27.19,382.45Z"/><path class="cls-21" d="M37.86,372.93a52.62,52.62,0,0,0,17.44,8.51l.23-.25.43-.45c.1-.11.21-.23.33-.34A36.75,36.75,0,0,1,59,377.86l.56-.46c.48-.38,1-.76,1.49-1.13l.95-.68c1-.67,2-1.33,3.08-2A25.49,25.49,0,0,1,51.3,368.9h0A38.18,38.18,0,0,0,37.86,372.93Z"/><path class="cls-31" d="M27.19,382.45a30.14,30.14,0,0,1,10.67-9.52,68.06,68.06,0,0,1-12.08-11.6l-.11,0c-.21.08-.4.15-.6.24-.35.14-.71.29-1.05.45l-.41.18-.7.34h0A41,41,0,0,0,27.19,382.45Z"/><path class="cls-25" d="M25.77,361.33a68.38,68.38,0,0,0,12.08,11.6,38.24,38.24,0,0,1,13.44-4,25.69,25.69,0,0,1-7.9-9.08,42.69,42.69,0,0,0-7.41-.44c-.23,0-.47,0-.7,0-.39,0-.79,0-1.18.07l-1.49.16-.72.11-.69.11q-.75.13-1.47.3l-.54.13-.21,0-.5.13q-.72.19-1.41.42l-.53.17-.18.06-.51.19Z"/><path class="cls-30" d="M22.9,362.58l.7-.34.41-.18q.52-.24,1-.45c.2-.09.4-.16.6-.24l.11,0c-.88-1.05-1.74-2.14-2.6-3.28C23,359.57,22.92,361.08,22.9,362.58Z"/><path class="cls-21" d="M23.18,358.05c.85,1.14,1.72,2.23,2.6,3.28l.07,0c.16-.07.34-.13.51-.19l.18-.06.53-.18q.69-.22,1.41-.42c.16,0,.33-.09.5-.12l.21-.06.54-.12c.48-.12,1-.21,1.47-.3.23-.05.46-.08.69-.11l.72-.11c.49-.06,1-.12,1.49-.16l1.18-.08.7,0a41.74,41.74,0,0,1,7.41.45,25.33,25.33,0,0,1-2.83-10h0c-5.93-2.3-11-2.55-15.53-1.38A59.38,59.38,0,0,0,23.18,358.05Z"/><path class="cls-25" d="M25,348.46c4.5-1.18,9.6-.92,15.53,1.37-.05-.61-.07-1.24-.07-1.86a25.65,25.65,0,0,1,1-7,25.09,25.09,0,0,0-11.6-4.69A61.76,61.76,0,0,0,25,348.46Z"/><path class="cls-21" d="M29.84,336.31A25,25,0,0,1,41.44,341a25.91,25.91,0,0,1,3.31-7.21,25.4,25.4,0,0,0-9.7-5.76A61.64,61.64,0,0,0,29.84,336.31Z"/><path class="cls-25" d="M35.05,328a25.48,25.48,0,0,1,9.7,5.76,25.94,25.94,0,0,1,10.93-9.26,26.67,26.67,0,0,1-6.14-10A53.1,53.1,0,0,0,35.05,328Z"/><circle class="cls-27" cx="77.89" cy="193.76" r="2.54"/><path class="cls-25" d="M62.53,271.82a162.74,162.74,0,0,1,34.92-33.4C90.33,236.79,80,231.5,71,224a21,21,0,0,1-6,2.72c4.4,3.26,7.68,9.45,7.15,18.78C72,251.56,67.57,261.62,62.53,271.82Z"/><path class="cls-25" d="M68.07,206.37c4.94,5.35,11.15,8.36,18.33,8.27.59-1.42,1-2.55,1.11-2.91A54,54,0,0,1,68.07,206.37Z"/><path class="cls-11" d="M205.34,137a79,79,0,0,0-8.5,1.31c-1.26.27-2.51.57-3.78.89-37,9.42-75.18,42.61-75.18,42.61-1.43-7.76-17.44-15.36-22.53-17.59-1-.43-1.55-.66-1.55-.66l.12-.1a27.87,27.87,0,0,1,2.33-2.14c.28-.24.57-.49.88-.72l.91-.7c.32-.23.63-.46,1-.68s.56-.4.85-.58l.27-.18c.3-.2.58-.39.88-.57.69-.44,1.4-.87,2.14-1.28.36-.2.73-.41,1.12-.61s.57-.32.86-.46.78-.41,1.18-.6l.75-.37.73-.34a100.15,100.15,0,0,1,12.9-4.86l1.45-.44,1.6-.46c1.27-.36,2.58-.71,3.89-1.05.87-.23,1.75-.44,2.65-.65l2.24-.53c1-.23,2.1-.47,3.17-.69,4.42-.94,9.07-1.79,13.89-2.56l1.5-.23c2.38-.38,4.8-.73,7.27-1.07l5-.65c3.49-.44,7.05-.85,10.66-1.23q3.89-.42,7.86-.8l2.08-.2c.69-.05,1.4-.13,2.09-.19l4.21-.38,2.12-.18.47,0,3.05-.26.74-.06Z"/><path class="cls-30" d="M385,306c-.45.72-.9,1.44-1.38,2.16s-1.15,1.7-1.77,2.53c-.81,1.09-1.65,2.18-2.54,3.26a1,1,0,0,1-1.36.15,1,1,0,0,1-.36-.75c0-.68,0-1.49,0-2.37,0-.58,0-1.22,0-1.88a1.62,1.62,0,0,0,0-.22v-.28c0-.28,0-.57,0-.86s0-.47,0-.71,0-.48,0-.72,0-.25,0-.38,0-.53,0-.8V305a.55.55,0,0,0,0-.18c0-.25,0-.5,0-.78a9.51,9.51,0,0,1,7.44,1.18C384.89,305.46,384.93,305.72,385,306Z"/><path class="cls-30" d="M367.29,317.17a1,1,0,0,1-.87,1,.86.86,0,0,1-.47-.08,44.46,44.46,0,0,1-7.46-4.2l-.57-.42-.13-.09a11.39,11.39,0,0,1,8.8-5.08l.05.66.25,3.14Z"/><path class="cls-25" d="M377.54,311c-3.36.29-7,.7-10.66,1.18l-.25-3.14,0-.66-2.23-28.26S368.5,296,377.3,301.24c0,.94.06,1.87.09,2.77,0,.27,0,.53,0,.78a1.09,1.09,0,0,1,0,.18v.14c0,.28,0,.53,0,.8a2.42,2.42,0,0,1,0,.38c0,.24,0,.48,0,.72s0,.48,0,.71,0,.58,0,.86v.28c0,.07,0,.15,0,.23C377.52,309.74,377.53,310.37,377.54,311Z"/><path class="cls-26" d="M384.41,303.09c.15.71.29,1.42.42,2.1a9.5,9.5,0,0,0-7.44-1.18c0-.9-.06-1.83-.09-2.77-8.79-5.25-12.94-21.16-12.94-21.16l2.23,28.26a11.38,11.38,0,0,0-8.81,5.07l.13.1-.22,0a61.76,61.76,0,0,0-10.12,2.39c-1.77.72-6.2,1.3-11.53,1.66-11.42.77-27,.56-29.43-1.19a17.6,17.6,0,0,1-3.53-3.42,28.55,28.55,0,0,1-5.46-13.33,39.15,39.15,0,0,1,3.89-23.71c1.92-3.76,4.15-7.54,6.45-11.2,14.59-11.62,33.52-14,33.52-14-8.37-3.07-12.38-5.69-17.13-15.59.11-2.07.12-4.75.22-7.76l3,.14c1.4-1.22,3.37-2.69,4.55-2.69,1.68,0,3.66.94,5.83,3.07l5.12.09A12.11,12.11,0,0,0,351,230.7a18.43,18.43,0,0,0,8-2.79c2-.07,4-.17,5.93-.29,1.27-2.84,2.05-3.7,3.94-4.08,1.36-.27,3.56,1.7,5.06,3.28A92.15,92.15,0,0,0,385,224.89c-3.82,16.38-14.27,25.4-19,27.31l.26.56.2.4c.08.16.17.36.27.58s.17.36.26.57.14.31.23.48.14.31.21.46a1.11,1.11,0,0,0,.09.19c.1.24.22.5.34.78s.2.43.3.65l.5,1.11c1.6,3.61,3.78,8.66,6,14.39.27.68.54,1.36.8,2.06l1,2.58.81,2.18c.2.55.41,1.11.6,1.67l.47,1.32c.18.49.35,1,.52,1.47.26.75.52,1.51.77,2.27s.49,1.46.73,2.19c.18.57.36,1.13.53,1.7.23.74.47,1.5.69,2.25s.43,1.43.63,2.14c.25.86.49,1.7.71,2.55.18.67.35,1.34.51,2s.34,1.33.49,2c0,.1.05.2.07.3C384.13,301.75,384.27,302.42,384.41,303.09Z"/><path class="cls-32" d="M396.18,285.94c-2.92,10.46-8.34,20.44-12.3,24.64l-2.05.09A68.3,68.3,0,0,0,394,282.42,18.2,18.2,0,0,1,396.18,285.94Z"/><path class="cls-25" d="M387.76,310.6c-1.08-.06-2.39-.07-3.87,0,3.95-4.2,9.37-14.17,12.29-24.64a18.48,18.48,0,0,1,1.24,3.3C400.47,300.43,387.76,310.6,387.76,310.6Z"/><path class="cls-26" d="M386.23,217.06l-.82-.83c-.61-5.16-2.64-8.94-8.74-13.7-7.16-5.6-7.6-3.13-13.86-2.23-4-.23-7.17,3.13-8.73,2.9s.22-6.49-1.57-6.26S348,207,346.25,207.45s-2.9-3.13-4-2.46-1.13,2.46-2.69,2.46-.22-6-2.46-6.48a.37.37,0,0,0-.21,0c-.27-1.79-1.35-2.93-4.08-4a78.31,78.31,0,0,1,5-6.3c.74-.81,1.51-1.59,2.32-2.32,5.67-5.08,11.72-6.16,24.09-4.7a25,25,0,0,1,10.49,3.8A27.81,27.81,0,0,1,379,190.9a36.25,36.25,0,0,1,6.08,7.75A65.37,65.37,0,0,1,386.23,217.06Z"/><path class="cls-23" d="M385.41,216.23c-7.86-7.83-19.62-15.77-22.6-15.93,6.26-.9,6.7-3.37,13.87,2.23C382.76,207.29,384.8,211.07,385.41,216.23Z"/><path class="cls-24" d="M386.18,217.47A51.78,51.78,0,0,1,385,224.9a90.39,90.39,0,0,1-11.08,1.93c-1.5-1.58-3.71-3.55-5.07-3.28-1.89.38-2.66,1.24-3.94,4.08-1.94.13-3.91.22-5.92.29,3.63-2.26,6.06-5.35,6.06-7.27,0-3.13-9.84-13-15.21-12.53s-12.75,8.5-12.08,12.75c.37,2.3,2.54,5.14,5.37,7.18-1.7,0-3.42,0-5.12-.09-2.17-2.13-4.16-3.07-5.83-3.07-1.18,0-3.15,1.48-4.56,2.7l-3-.15a84.08,84.08,0,0,1,1.62-15.34l1.76-2.23c1-1.22,2.1-2.57,3.22-3.84,2.31-2.64,4.62-4.94,5.7-5.06a.34.34,0,0,1,.2,0c2.24.45.9,6.48,2.46,6.48s1.57-1.79,2.7-2.46,2.23,2.91,4,2.46,4.47-10.29,6.26-10.51,0,6,1.56,6.26,4.72-2.55,8.73-2.9c4.55-.4,17.85,7,22.6,15.94A12.05,12.05,0,0,0,386.18,217.47Z"/><path class="cls-33" d="M338.68,277.54c.9,19.1,11.11,30.12,19.1,35.88"/><path class="cls-34" d="M338.68,277.54c.9,19.1,11.11,30.12,19.1,35.88"/><path class="cls-34" d="M320.88,281.61c9.92,9.53,14.5,23,15.26,35.91"/><path class="cls-30" d="M387.57,203.39A39.55,39.55,0,0,0,379,190.9c5.32-7.41,8.46-9.94,10.17-7.16C390.78,186.32,390.09,197.34,387.57,203.39Z"/><path class="cls-25" d="M389.54,208.35c-.61-1.76-1.27-3.42-2-5,2.52-6,3.21-17.06,1.63-19.64-1.7-2.79-4.84-.26-10.17,7.15a27.35,27.35,0,0,0-4.32-3.41c2.65-2.6,9.31-8.52,14-8C394.16,180.08,394.36,197.36,389.54,208.35Z"/><path class="cls-25" d="M340.13,188.39c-.81.73-1.58,1.51-2.32,2.32-5-4.9-11.6-6-13.48-4.28-1.58,1.4,1,11.81,4.58,17.14a39.35,39.35,0,0,0-2,5.45c-6.11-6-8.56-23.14-4.64-25.51S334.29,182.93,340.13,188.39Z"/><path class="cls-24" d="M337.82,190.71a75.73,75.73,0,0,0-5,6.3c-.23.3-.44.6-.66.9a31.44,31.44,0,0,0-3.23,5.67c-3.62-5.34-6.15-15.75-4.58-17.15C326.21,184.76,332.77,185.81,337.82,190.71Z"/><path class="cls-23" d="M336.87,201c-1.07.12-3.39,2.42-5.7,5.05-1.11,1.28-2.23,2.63-3.22,3.85l-1.76,2.23c.22-1,.48-2.06.77-3.08a39.3,39.3,0,0,1,2-5.45,31.7,31.7,0,0,1,3.23-5.66c.22-.31.43-.6.66-.9C335.52,198,336.6,199.17,336.87,201Z"/><path class="cls-23" d="M365,220.64c0,1.92-2.43,5-6.06,7.28a18.52,18.52,0,0,1-8,2.79,12.09,12.09,0,0,1-7.83-2.66c-2.83-2-5-4.88-5.37-7.18-.67-4.25,6.71-12.3,12.08-12.75S365,217.52,365,220.64Z"/><path class="cls-25" d="M303.08,313a90.19,90.19,0,0,1-10.27.26c.18-.43.36-.88.52-1.35s.26-.72.38-1.1c.06-.21.14-.43.2-.64.14-.46.27-.92.38-1.39.25-.95.48-1.93.66-2.93.12-.66.22-1.33.31-2,.06-.43.11-.88.16-1.33v0c.06-.55.11-1.12.15-1.7.79.24,1.58.46,2.38.68A27.75,27.75,0,0,0,303.08,313Z"/><path class="cls-26" d="M298,301.46c-.8-.22-1.59-.44-2.38-.68,0-.6.06-1.2.08-1.82a12.58,12.58,0,0,0,2,.7C297.72,300.26,297.83,300.87,298,301.46Z"/><path class="cls-30" d="M295.57,300.77q-.06.87-.15,1.71v0c-.05.45-.11.9-.16,1.34-.09.67-.2,1.34-.31,2-.18,1-.4,2-.66,2.93-.1.48-.24.94-.38,1.39-.06.22-.14.43-.2.65s-.25.73-.38,1.1-.34.91-.52,1.35a61.94,61.94,0,0,1-8.69-.87c.21-.24.41-.48.61-.74s.4-.52.59-.79.38-.5.56-.76l.38-.56c.13-.19.26-.39.38-.6s.32-.5.47-.76.49-.81.71-1.23a5.7,5.7,0,0,0,.3-.54c.27-.49.52-1,.77-1.52.14-.29.28-.58.41-.88.4-.89.79-1.82,1.14-2.76.24-.63.47-1.27.67-1.93h0C292.59,299.84,294.07,300.32,295.57,300.77Z"/><path class="cls-24" d="M295.65,299c0,.61,0,1.22-.08,1.81-1.5-.45-3-.94-4.45-1.46.29-.89.55-1.81.79-2.74A15.45,15.45,0,0,0,295.65,299Z"/><path class="cls-25" d="M291.11,299.31c-.22.66-.44,1.3-.67,1.94-.36.94-.74,1.86-1.14,2.75-.13.3-.27.59-.41.88-.25.52-.5,1-.77,1.52q-.15.28-.3.54c-.22.42-.47.83-.71,1.23s-.31.52-.48.76-.25.4-.38.6-.25.38-.38.56l-.55.77c-.19.25-.39.53-.59.78s-.4.5-.61.74a36.9,36.9,0,0,1-14-5.21l.88-.24.79-.27a21.89,21.89,0,0,0,2.89-1.28l.89-.5.89-.54a4.76,4.76,0,0,0,.47-.31,37.38,37.38,0,0,0,6.34-5.3l.61-.65c.27-.29.54-.58.8-.89l.15-.16.07-.09.08-.08C287,297.75,289,298.57,291.11,299.31Z"/><path class="cls-35" d="M284.93,296.85h0c0,.06-.11.11-.15.17A2.09,2.09,0,0,0,284.93,296.85Z"/><path class="cls-26" d="M291.91,296.57c-.24.93-.5,1.85-.79,2.74h0c-2.09-.74-4.13-1.56-6.16-2.46.67-.77,1.32-1.58,2-2.43l.64-.87.81-1.18A17.68,17.68,0,0,0,291.91,296.57Z"/><path class="cls-30" d="M284.93,296.85a2.09,2.09,0,0,1-.14.17,1.14,1.14,0,0,1-.15.16c-.26.31-.53.6-.8.89l-.61.65a37,37,0,0,1-6.34,5.3,4.76,4.76,0,0,1-.47.31c-.3.2-.59.37-.89.54l-.89.5a22.7,22.7,0,0,1-2.89,1.29l-.79.26-.87.24a26.81,26.81,0,0,1-10.85-14.38c3.72.78,8.76.08,14-2A104.67,104.67,0,0,0,284.93,296.85Z"/><path class="cls-24" d="M288.35,292.37l-.81,1.18c-.22.3-.43.58-.63.87-.65.85-1.3,1.66-2,2.43-.05.06-.11.11-.15.17a1.15,1.15,0,0,0,.14-.17,106.45,106.45,0,0,1-11.67-6,45.27,45.27,0,0,0,12.21-7.2A21.1,21.1,0,0,0,288.35,292.37Z"/><path class="cls-26" d="M286,274.31a29.07,29.07,0,0,0-.57,9.3,45,45,0,0,1-12.21,7.2,140.07,140.07,0,0,1-16.14-11.33c-.05-2,0-4,.11-6,6.24,3.48,18,3.91,29.08-.38Q286.16,273.72,286,274.31Z"/><path class="cls-24" d="M289,262.86c-.93,3.4-1.91,6.88-2.69,10.27-11,4.3-22.83,3.87-29.07.38.2-3.92.67-7.74,1.18-11.2a38.25,38.25,0,0,1,1.46-6.44C265,261,276.79,264.53,289,262.86Z"/><path class="cls-26" d="M291.84,248.1c-.06,4.21-1.37,9.37-2.85,14.76-12.21,1.67-24.05-1.83-29.12-7a25.61,25.61,0,0,1,10-13.91C274.56,245.65,282.81,248.2,291.84,248.1Z"/><path class="cls-24" d="M291.84,248.1c-9,.11-17.29-2.45-22-6.14a21.46,21.46,0,0,1,14.5-3.66C290.11,239.21,291.92,242.93,291.84,248.1Z"/><ellipse class="cls-36" cx="350" cy="220.75" rx="5.73" ry="2.55"/><circle class="cls-36" cx="332.48" cy="214.88" r="1.67"/><circle class="cls-36" cx="367.95" cy="213.51" r="1.67"/><path class="cls-25" d="M341.49,250.79s-18.94,2.34-33.52,14c7.32-11.63,15.32-22.1,16.15-27.1.1-.68.18-1.5.24-2.45C329.11,245.1,333.11,247.72,341.49,250.79Z"/><path class="cls-25" d="M392.89,222.22c-.58.28-1.17.54-1.8.79a37.48,37.48,0,0,0-4.86-5.95,65.37,65.37,0,0,0-1.12-18.41,46.22,46.22,0,0,1,2.46,4.74c.7,1.54,1.36,3.2,2,5A79.65,79.65,0,0,1,392.89,222.22Z"/><path class="cls-30" d="M391.08,223A46.14,46.14,0,0,1,385,224.9a51.78,51.78,0,0,0,1.19-7.43c0-.14,0-.27.05-.41a37.8,37.8,0,0,1,4.63,5.62A2.7,2.7,0,0,1,391.08,223Z"/><path class="cls-25" d="M394,282.43A69.12,69.12,0,0,1,385,306c-3.9-22.2-19-53.77-19-53.77,4.77-1.91,15.22-10.92,19-27.31l.87-.21c.26-.06.51-.13.76-.21a38.15,38.15,0,0,0,4.46-1.47c.64-.26,1.23-.51,1.81-.79q.48,3,.79,6.3C395.64,248.94,397,266.6,394,282.43Z"/><path class="cls-25" d="M273.26,290.81c-5.27,2.05-10.31,2.75-14,2a45.54,45.54,0,0,1-2.11-13.31A138.93,138.93,0,0,0,273.26,290.81Z"/><line class="cls-37" x1="284.94" y1="296.85" x2="284.93" y2="296.85"/><circle class="cls-38" cx="100.99" cy="116.57" r="6.01"/><circle class="cls-38" cx="120.76" cy="116.57" r="6.01"/><circle class="cls-38" cx="140.37" cy="116.57" r="6.01"/><circle class="cls-38" cx="159.94" cy="116.57" r="6.01"/><circle class="cls-38" cx="179.44" cy="116.57" r="6.01"/><circle class="cls-39" cx="159.2" cy="115.99" r="6.01"/><circle class="cls-39" cx="120" cy="115.99" r="6.01"/><path class="cls-15" d="M120,112.62l1.1,2.21,2.44.36-1.77,1.72.42,2.44L120,118.2l-2.19,1.15.42-2.44-1.77-1.72,2.45-.36Z"/><circle class="cls-39" cx="139.6" cy="115.99" r="6.01"/><path class="cls-15" d="M139.6,112.62l1.09,2.21,2.45.36-1.77,1.72.42,2.44-2.19-1.15-2.19,1.15.42-2.44-1.77-1.72,2.45-.36Z"/><circle class="cls-39" cx="178.8" cy="115.99" r="6.01"/><path class="cls-15" d="M178.8,112.62l1.09,2.21,2.45.36-1.77,1.72.41,2.44-2.18-1.15-2.19,1.15.42-2.44-1.77-1.72,2.44-.36Z"/><path class="cls-38" d="M154.79,94.16l1.48,3,3.31.48-2.4,2.34.57,3.3-3-1.56-3,1.56.57-3.3L150,97.65l3.31-.48Z"/><path class="cls-40" d="M200.05,64.79c-1.27.61-2.55,1.21-3.83,1.79-1,.46-2,.91-3,1.33-.52.24-1,.46-1.53.67l-.79.34s0,0,0,0l-1.88.79c-1.16.48-2.31,1-3.49,1.41-.18.08-.35.15-.53.21-1.14.45-2.29.88-3.44,1.31s-2.5.93-3.75,1.36l-3.13,1.08c-.51.17-1,.34-1.52.49q-1.46.48-2.91.93c-1.07.34-2.13.67-3.2,1l-1.75.51c-2.06.6-4.11,1.15-6.18,1.67l-2.2.55-2.28.54-2.92.66-.18,0c-1.89.4-3.77.79-5.66,1.14l-.15,0c-2.87.54-5.72,1-8.59,1.44l-.11,0q-2.86.41-5.7.75l-3,.32q-5.76.6-11.46.84c-3.75.18-7.47.22-11.15.18q-.83,0-1.65,0c-3.68-.1-7.32-.29-10.92-.6l-2.4-.23-2.24-.23-1.2-.14-2.16-.29q-.77-.09-1.53-.21l-1.61-.25c-.87-.13-1.74-.27-2.6-.43L77,83.31l-.86-.18-1.91-.38c-.19,0-.37-.09-.57-.12l-1.79-.41c-1.24-.29-2.48-.58-3.7-.91-.76-.19-1.54-.4-2.29-.61-.53-.14-1-.28-1.55-.44q-.51-7-1.07-14a3.65,3.65,0,0,1,3.63-3.63C99.33,63.79,145.34,64.77,200.05,64.79Z"/><circle class="cls-39" cx="100.41" cy="115.99" r="6.01"/><path class="cls-15" d="M100.41,112.62l1.09,2.21,2.44.36-1.77,1.72.42,2.44-2.19-1.15-2.18,1.15.42-2.44-1.77-1.72,2.44-.36Z"/><path class="cls-15" d="M153.92,93.3l1.49,3,3.31.48-2.4,2.34.57,3.3-3-1.56-3,1.56.56-3.3-2.4-2.34,3.32-.48Z"/><path class="cls-38" d="M165.59,88c-2.27,3.9-5.07,7-8.23,8.63A37.3,37.3,0,0,0,163.47,88Z"/><path class="cls-40" d="M171.84,66.21a49.65,49.65,0,0,1-1.59,10.29A46,46,0,0,1,165.6,88h-2.13a36.73,36.73,0,0,1-6.11,8.62,7.58,7.58,0,0,1-1.08.51c-3.09,1.24-2.87-2.13-1.32-7,.22-.67.46-1.37.73-2.1.95-2.66,2.18-5.59,3.44-8.39.6-1.32,1.2-2.61,1.77-3.83.95-2,1.83-3.79,2.55-5.22,1.06-2.11,1.77-3.45,1.77-3.45l2.2-.3.09,0Z"/><path class="cls-41" d="M153,41.4c.24-3.86-.17-10.28-2.57-12.41-3-2.64-4.4.47-8.63,6.12-1.24-.47-2.49-.87-3.72-1.22,6.14-9.3,5.83-12.6,10.63-11.53,4.55,1,7.55,13.4,7.53,21.81C155.21,43.2,154.12,42.27,153,41.4Z"/><ellipse class="cls-24" cx="75.89" cy="71.37" rx="8.6" ry="1.68" transform="matrix(0.97, -0.25, 0.25, 0.97, -15.59, 21.53)"/><ellipse class="cls-24" cx="169.73" cy="60.29" rx="1.68" ry="8.6" transform="translate(44.44 189.7) rotate(-65.48)"/><ellipse class="cls-24" cx="99.68" cy="84.38" rx="1.72" ry="5.19" transform="translate(-30.47 95.2) rotate(-45)"/><ellipse class="cls-24" cx="100.96" cy="83.1" rx="1.72" ry="5.19" transform="translate(-16.55 140.47) rotate(-65.48)"/><ellipse class="cls-24" cx="97.41" cy="85.47" rx="1.72" ry="5.19" transform="translate(-6.6 8.17) rotate(-4.64)"/><path class="cls-23" d="M123.64,58c-.94-.5-2.13-1.24-3.61-2.2-5.27-3.46-12,2.33-22.44,17.21-.52.74-1,1.5-1.58,2.28A32.69,32.69,0,0,1,95.7,69a35.07,35.07,0,0,1,.77-5.87h0a36,36,0,0,1,1.94-3.69,19.16,19.16,0,0,1,3-3.88,12.87,12.87,0,0,1,8.24-3.65C116.88,51.23,120.53,53.66,123.64,58Z"/><path class="cls-26" d="M157.71,45.65c-.52-.06-1-.12-1.51-.16-8.59-.81-11.49,1.65-14.33,7.48-2.79,1.74-4.41,3.87-5.7,4.28-3.35,1.07-5-7.33-7.55-6.27s-.9,3.05-1.25,5.91c-.27,2.11-1,2.56-3.72,1.13-3.12-4.35-6.76-6.79-14-6.14a12.87,12.87,0,0,0-8.24,3.65,19.1,19.1,0,0,0-3,3.87,40.54,40.54,0,0,0-1.94,3.69,40.19,40.19,0,0,1,1.37-4.79,43.87,43.87,0,0,1,2.15-5h0a43.94,43.94,0,0,1,8.8-11.77A40.07,40.07,0,0,1,113,38.09,29,29,0,0,1,124.23,33a31.34,31.34,0,0,1,13.85.87c1.24.35,2.48.75,3.71,1.22a44,44,0,0,1,11.2,6.3,37.13,37.13,0,0,1,3.23,2.77C156.74,44.65,157.24,45.14,157.71,45.65Z"/><path class="cls-24" d="M161,92.11a35.62,35.62,0,0,1-3.68,4.54q-.81.85-1.68,1.65a1.66,1.66,0,0,1-2.75-1.54c.37-2,.71-4.14,1-6.6.35,0,.7,0,1,0A10.55,10.55,0,0,1,161,92.11Z"/><path class="cls-25" d="M167.67,69.68a39,39,0,0,1-.61,7.79A38,38,0,0,1,163.47,88,36.56,36.56,0,0,1,161,92.12a10.55,10.55,0,0,0-6.08-2c-.34,0-.68,0-1,0,.08-.7.15-1.4.22-2.13.23-2.24.4-4.66.5-7.29,0-.56.05-1.13.07-1.71a31.65,31.65,0,0,0,6.19-3.22A29.09,29.09,0,0,0,167.67,69.68Z"/><path class="cls-42" d="M129,72.26c-.2-1.19,2-2.56,5-3.05s5.48.09,5.68,1.27-2,2.55-5,3S129.23,73.44,129,72.26Z"/><path class="cls-42" d="M167.67,55.81c-.17-.1-.36-.2-.53-.28"/><path class="cls-42" d="M96,75.31c-.39.58-.8,1.17-1.2,1.79"/><path class="cls-42" d="M124.68,59.56c-.34-.53-.69-1.05-1-1.54"/><path class="cls-42" d="M95,66.67c-.41,1.06-.82,2.19-1.24,3.37"/><path class="cls-42" d="M159.91,46c-.77-.13-1.5-.23-2.19-.32"/><path class="cls-42" d="M154.77,72.91c0-.94,0-1.89-.05-2.87"/><path class="cls-24" d="M108.8,41.52A43.78,43.78,0,0,0,100,53.3c-3.51-5.47-5-7.77-3.22-9.65S105.12,41.22,108.8,41.52Z"/><path class="cls-23" d="M113,38.09a38.93,38.93,0,0,0-4.14,3.44c-.76-.06-1.64-.08-2.59-.06h-.46c-1,0-2.05.12-3.07.25l-.61.09h0l-.87.14L101,42l-.6.13-.1,0c-.23,0-.44.1-.66.16a8.06,8.06,0,0,0-2.34.95l-.18.13a3.65,3.65,0,0,0-.3.27,3.43,3.43,0,0,0-.32.41,2.89,2.89,0,0,0-.22.43,2.5,2.5,0,0,0-.17,1.24,5.29,5.29,0,0,0,.41,1.51c.17.41.39.86.64,1.35l0,0c.13.24.28.5.44.77s.49.84.78,1.3l.58.93c.17.25.33.51.5.78s.37.58.57.89h0a39.29,39.29,0,0,0-2.15,5Q96.42,55.47,95.33,53c-3.16-7.22-3.87-12-1.41-14.29,2.27-2.1,8.79-2.33,14-1.66A26.26,26.26,0,0,1,113,38.09Z"/><path class="cls-24" d="M153,41.4a44.1,44.1,0,0,0-11.2-6.29c4.25-5.64,5.69-8.75,8.65-6.12C152.83,31.12,153.24,37.54,153,41.4Z"/><path class="cls-31" d="M167.49,66.75c-.13-1.31-.33-2.61-.59-3.9a32.88,32.88,0,0,0-3.24-9c1.12.49,2.27,1.06,3.47,1.7,1.8,1,.42,2.31.6,5A23.62,23.62,0,0,1,167.49,66.75Z"/><path class="cls-31" d="M169.92,28.05s-2.27.14-2.79,6.21c0,0-1-6.36,0-9.72C168.91,26.68,169.92,28.05,169.92,28.05Z"/><path class="cls-25" d="M177.07,52.6c-1.36,2.15-4.46,4.68-6.54,6.22-1.18.9-2,1.47-2,1.47l-.76.29c0-.17,0-.35,0-.51s0-.33,0-.5,0-.32,0-.48c-.05-.57-.12-1.1-.17-1.55-.11-.83-.2-1.46-.26-1.77a.68.68,0,0,1,0-.14.44.44,0,0,0,0-.1,28.77,28.77,0,0,0-11.29-17.11c-.94-7.4-3.56-15.27-7.15-16.06-4.32-1-4.48,1.63-9,9a45.23,45.23,0,0,0-8.84-.88,42.09,42.09,0,0,0-23,6.59c-5.23-.66-11.73-.44-14,1.66-2.46,2.25-1.75,7.08,1.4,14.3a24.54,24.54,0,0,0-1.14,7.41A24.08,24.08,0,0,0,95,66.66,23.08,23.08,0,0,0,95.69,69,32,32,0,0,0,96,75.32q.1.83.27,1.65a39.52,39.52,0,0,0,1.86,6.41c-5.32-.71-11-1.73-17.07-3.1a4.89,4.89,0,0,1-3.77-5.81h0l.06-.25A14,14,0,0,1,79.54,70a31.61,31.61,0,0,1-2.83-3.71s0,0,0,0a40.9,40.9,0,0,1-3.55-6.58,44.75,44.75,0,0,1-2.08-6.17h0a46.25,46.25,0,0,1-1.27-7.11.93.93,0,0,1,0-.24,26,26,0,0,1,.35-7.82,21.34,21.34,0,0,1,4.22-9.08A22.15,22.15,0,0,1,80.44,24a45.53,45.53,0,0,1,12,10.76c-.08-.53-1.48-8.94-4.45-14.95a21.75,21.75,0,0,0,2-2.57C94.28,10.75,108.22-.52,129,0c16.11.42,31.89,17.08,38.14,24.51-1,3.37,0,9.73,0,9.73.51-6.07,2.79-6.22,2.79-6.22a5.87,5.87,0,0,1,8,2.37,5.61,5.61,0,0,1,.45,1.08C180.47,37.21,179.22,49.2,177.07,52.6Z"/><path class="cls-24" d="M167.49,66.75a50.27,50.27,0,0,1-10.15,8.3,32.63,32.63,0,0,1-2.58-2.15c-.67-.59-1.34-1.22-2-1.87a47.6,47.6,0,0,0-9.44-7.21c-8.4-4.7-12.51-2.28-20.57,6.22-1.71,1.8-3.23,3.56-4.79,5.19-4.23,4.47-8.56,8-16.68,8.53h0c-1-.11-2-.24-3.07-.38A39.7,39.7,0,0,1,96.29,77c-.11-.56-.2-1.12-.28-1.67,11.29-16.57,18.49-23.12,24-19.49,1.48,1,2.67,1.7,3.61,2.2,2.7,1.43,3.46,1,3.72-1.14.36-2.85-1.26-4.83,1.25-5.9s4.2,7.34,7.55,6.26c1.3-.41,2.91-2.53,5.71-4.27,4-2.5,10.42-4.25,21.79.86a32.88,32.88,0,0,1,3.24,9C167.16,64.14,167.36,65.44,167.49,66.75Z"/><path class="cls-26" d="M120.75,84.71a134.07,134.07,0,0,1-19.52-.95c8.12-.56,12.45-4.06,16.68-8.53A12.15,12.15,0,0,0,120.75,84.71Z"/><path class="cls-26" d="M157.34,75.05c-.82.51-1.68,1-2.58,1.5-1.46.79-3,1.56-4.68,2.27a18.18,18.18,0,0,0,2.63-7.8c.71.66,1.38,1.29,2,1.88A32.63,32.63,0,0,0,157.34,75.05Z"/><path class="cls-23" d="M143.27,63.82c-8.4-4.7-12.51-2.27-20.57,6.22-1.71,1.8-3.23,3.56-4.78,5.19a12.07,12.07,0,0,0,2.84,9.48h0c12.33-.35,21.88-2.67,29.3-5.89h0A18.07,18.07,0,0,0,152.71,71,47.89,47.89,0,0,0,143.27,63.82Zm-8.56,9.71c-2.93.49-5.48-.08-5.68-1.27s2-2.55,5-3,5.48.08,5.68,1.27-2,2.55-5,3Z"/><path class="cls-43" d="M79.55,70a36.93,36.93,0,0,1,5.79-6.19"/><path class="cls-27" d="M134.71,73.52c-2.93.49-5.48-.07-5.68-1.26s2-2.56,5-3.05,5.48.09,5.68,1.27S137.66,73,134.71,73.52Z"/><path class="cls-31" d="M73.16,59.69a25.16,25.16,0,0,1-5.6,6.52,14.85,14.85,0,0,1-7.68-3.45,25.8,25.8,0,0,0,11.19-9.24A43.07,43.07,0,0,0,73.16,59.69Z"/><path class="cls-29" d="M71.08,53.51h0a25.88,25.88,0,0,1-11.2,9.24c-2.57-2.31-4.4-5.84-5.12-11.06a26.05,26.05,0,0,0,15-5.3A45.1,45.1,0,0,0,71.08,53.51Z"/><path class="cls-31" d="M69.78,46.16a2.11,2.11,0,0,1,0,.25,26,26,0,0,1-15,5.3,46.84,46.84,0,0,1-.17-10.25c.09-1.2.25-2.4.45-3.6a27,27,0,0,0,15.1.49A26.23,26.23,0,0,0,69.78,46.16Z"/><path class="cls-29" d="M74.35,29.26a21.36,21.36,0,0,0-4.21,9.09A26.94,26.94,0,0,1,55,37.86,52.55,52.55,0,0,1,60.5,22.28,27.64,27.64,0,0,0,74.35,29.26Z"/><path class="cls-31" d="M81.68,23.43l-.28,0a21,21,0,0,0-7.05,5.81,27.68,27.68,0,0,1-13.85-7h0a46.15,46.15,0,0,1,11-14C72.88,15,77.41,20.22,81.68,23.43Z"/><path class="cls-29" d="M83.24,23.09h0a6.24,6.24,0,0,1-1.54.34h0C77.41,20.22,72.88,15,71.52,8.24c3.32-2.67,6.69-4.1,9.63-3.68C90.22,5.82,88.61,12.59,83.24,23.09Z"/><circle class="cls-27" cx="115.9" cy="64.7" r="1.59"/><circle class="cls-27" cx="146.2" cy="58.8" r="1.59"/><path class="cls-31" d="M76.71,66.28a34.11,34.11,0,0,1-9.14-.07,25.67,25.67,0,0,0,5.6-6.51A40.49,40.49,0,0,0,76.71,66.28Z"/><path class="cls-42" d="M81.69,23.43c.34.26.66.49,1,.71a24.67,24.67,0,0,0,3.49,2"/><path class="cls-31" d="M97.85,58.3a40.24,40.24,0,0,0-1.38,4.79v0A35.09,35.09,0,0,0,95.7,69,22.12,22.12,0,0,1,95,66.66,24.45,24.45,0,0,1,95.31,53C96,54.63,96.87,56.41,97.85,58.3Z"/><path class="cls-31" d="M139.73,31.31c-.5.8-1,1.66-1.65,2.57A31.38,31.38,0,0,0,124.22,33,29,29,0,0,0,113,38.08a26.27,26.27,0,0,0-5-1.06,42,42,0,0,1,23-6.59A44.44,44.44,0,0,1,139.73,31.31Z"/><path class="cls-23" d="M153,41.4c.25-3.86-.16-10.28-2.56-12.41-3-2.64-4.4.48-8.64,6.12-1.23-.47-2.47-.88-3.71-1.22.61-.92,1.15-1.78,1.65-2.58,4.49-7.32,4.65-9.91,9-8.95,3.6.79,6.2,8.66,7.15,16.06a44.34,44.34,0,0,1,.38,5.76A38.93,38.93,0,0,0,153,41.4Z"/><path class="cls-31" d="M167.14,55.53c-1.21-.65-2.37-1.21-3.48-1.71a37,37,0,0,0-5.95-8.17c-.47-.51-1-1-1.48-1.47a44.34,44.34,0,0,0-.38-5.76A28.77,28.77,0,0,1,167.14,55.53Z"/><path class="cls-31" d="M92.43,34.73a45.18,45.18,0,0,0-12-10.79c.59-.33,1-.5,1-.5h.29a6.15,6.15,0,0,0,1.54-.35h0A11.9,11.9,0,0,0,88,19.75C91,26,92.43,34.73,92.43,34.73Z"/><path class="cls-31" d="M167.67,69.68a31,31,0,0,1-13,9.35c0-.43,0-.86,0-1.31s0-.77,0-1.17c.9-.5,1.75-1,2.58-1.5a50.27,50.27,0,0,0,10.15-8.3c0,.38.06.77.09,1.15s0,.73.06,1.1v0Z"/><path class="cls-23" d="M163.66,53.83c-11.37-5.1-17.79-3.36-21.79-.86,2.84-5.83,5.74-8.3,14.33-7.48.49,0,1,.11,1.52.16A37.6,37.6,0,0,1,163.66,53.83Z"/><path class="cls-14" d="M228.06,121.84H189.68V110q16.89.33,34.56.46Q226.08,116.16,228.06,121.84Z"/><path class="cls-39" d="M318.76,110v11.86h-90.7q-2-5.69-3.82-11.4,21.16.16,43.46.07Q292.52,110.42,318.76,110Z"/><circle class="cls-40" cx="234.96" cy="141.03" r="1.34"/><path class="cls-15" d="M455.2,52.38c-.82.17-2.1,9.71-3.11,23H330.17v-23Z"/><path class="cls-39" d="M452.09,75.38c-.52,6.91-1,14.84-1.24,23H331.11c-.31-8.13-.52-16.06-.66-23Z"/><path class="cls-39" d="M450.8,126.27H332.71c-.59-7.17-1-15.09-1.4-23H450.7C450.52,111.13,450.52,119,450.8,126.27Z"/><path class="cls-39" d="M383.24,67.74H339.09a1.27,1.27,0,0,1-1.29-1.26h0a1.28,1.28,0,0,1,1.29-1.27h44.15a1.28,1.28,0,0,1,1.29,1.27h0A1.27,1.27,0,0,1,383.24,67.74Z"/><path class="cls-39" d="M364.26,62.53H339.09a1.27,1.27,0,0,1-1.29-1.26h0A1.28,1.28,0,0,1,339.09,60h25.17a1.27,1.27,0,0,1,1.28,1.27h0A1.27,1.27,0,0,1,364.26,62.53Z"/><path class="cls-15" d="M404.46,91.24H360.31A1.28,1.28,0,0,1,359,90h0a1.28,1.28,0,0,1,1.29-1.26h44.15A1.27,1.27,0,0,1,405.75,90h0A1.27,1.27,0,0,1,404.46,91.24Z"/><path class="cls-15" d="M385.89,86H360.82a1.79,1.79,0,0,1-1.8-1.77h0a1.81,1.81,0,0,1,1.8-1.77h25.07a1.79,1.79,0,0,1,1.8,1.77h0A1.79,1.79,0,0,1,385.89,86Z"/><path class="cls-15" d="M339.42,79.84h10.81a1.63,1.63,0,0,1,1.62,1.62V92.27a1.63,1.63,0,0,1-1.62,1.62H339.42a1.63,1.63,0,0,1-1.62-1.62V81.46A1.63,1.63,0,0,1,339.42,79.84Z"/><path class="cls-15" d="M438.54,85.29A1,1,0,0,1,440,83.87l4.56,4.57a1,1,0,0,1-1.42,1.42h0Z"/><path class="cls-15" d="M440,89.86a1,1,0,0,1-1.42-1.42l4.56-4.57a1,1,0,0,1,1.42,1.42Z"/><path class="cls-15" d="M404.46,119.16H360.31a1.29,1.29,0,0,1-1.29-1.27h0a1.28,1.28,0,0,1,1.29-1.26h44.15a1.27,1.27,0,0,1,1.29,1.26h0A1.28,1.28,0,0,1,404.46,119.16Z"/><path class="cls-15" d="M385.89,114H360.82a1.8,1.8,0,0,1-1.8-1.77h0a1.79,1.79,0,0,1,1.8-1.77h25.07a1.79,1.79,0,0,1,1.8,1.77h0A1.79,1.79,0,0,1,385.89,114Z"/><path class="cls-15" d="M339.42,107.76h10.81a1.63,1.63,0,0,1,1.62,1.62v10.81a1.62,1.62,0,0,1-1.62,1.61H339.42a1.62,1.62,0,0,1-1.62-1.61h0V109.38a1.63,1.63,0,0,1,1.62-1.62Z"/><path class="cls-15" d="M438.54,113.21a1,1,0,0,1,1.42-1.42h0l4.56,4.56a1,1,0,0,1,0,1.42,1,1,0,0,1-1.42,0h0Z"/><path class="cls-15" d="M440,117.77a1,1,0,0,1-1.42,0,1,1,0,0,1,0-1.42l4.56-4.56a1,1,0,0,1,1.42,1.42Z"/><path class="cls-39" d="M455.21,154.19H338.05c-2.18-2.37-3.75-11.31-4.88-23H451C451.66,141.52,452.94,150,455.21,154.19Z"/><path class="cls-15" d="M407.4,147.07H363.24a1.27,1.27,0,0,1-1.28-1.26h0a1.27,1.27,0,0,1,1.28-1.27H407.4a1.29,1.29,0,0,1,1.29,1.27h0A1.28,1.28,0,0,1,407.4,147.07Z"/><path class="cls-15" d="M388.82,141.87H363.76a1.79,1.79,0,0,1-1.8-1.77h0a1.78,1.78,0,0,1,1.8-1.77h25.06a1.78,1.78,0,0,1,1.8,1.77h0A1.79,1.79,0,0,1,388.82,141.87Z"/><path class="cls-15" d="M342.35,135.68h10.81a1.63,1.63,0,0,1,1.62,1.62v10.8a1.62,1.62,0,0,1-1.62,1.62H342.35a1.62,1.62,0,0,1-1.62-1.62h0V137.3A1.63,1.63,0,0,1,342.35,135.68Z"/><path class="cls-15" d="M438.54,141.13a1,1,0,0,1,1.42-1.42l4.56,4.56a1,1,0,1,1-1.42,1.42Z"/><path class="cls-15" d="M440,145.69a1,1,0,0,1-1.42-1.42h0l4.56-4.56a1,1,0,0,1,1.42,1.42h0Z"/><path class="cls-44" d="M455.21,52.38c-1.28,15.85-2.37,31.39-2.87,46h-1.49c.27-8.14.72-16.07,1.24-23C453.1,62.1,454.38,52.55,455.21,52.38Z"/><line class="cls-45" x1="461.07" y1="98.36" x2="452.34" y2="98.36"/><path class="cls-44" d="M452.24,126.27H450.8c-.28-7.24-.28-15.14-.1-23h1.48C452,111.31,452,119,452.24,126.27Z"/><line class="cls-45" x1="455.96" y1="103.29" x2="452.19" y2="103.29"/><line class="cls-45" x1="458.15" y1="126.27" x2="452.24" y2="126.27"/><path class="cls-44" d="M455.2,154.2c-2.26-4.23-3.54-12.68-4.16-23h1.42A161.52,161.52,0,0,0,455.2,154.2Z"/><line class="cls-45" x1="455.96" y1="131.21" x2="452.46" y2="131.21"/><path class="cls-20" d="M169.57,151.13c-1.9,1.11-3.75,2.22-5.55,3.35h-7c2-1.14,4.05-2.26,6.13-3.35h6.4Z"/><path class="cls-1" d="M126.49,344l42.18,15.4a22.72,22.72,0,0,0,10.53,1.23c15.32-1.85,58.27-7.37,66.53-12.12,10.09-5.8-14.7-21.23-36.73-27.74"/><path class="cls-46" d="M169.24,334.68l-.18,8.7-42.25-.88a4.62,4.62,0,0,1-4.51-4.7l.75-36.22,4.35-4.42,3.64,3.27,1.5,1.35,31.2,28Z"/><path class="cls-8" d="M163.87,295.5l-3.21-3.76-9.78-11.42-3.18-3.73-20.3,20.58,3.64,3.27,1.5,1.35,31.2,28,5.5,4.93.67-32.13Zm-16.6.2a3.8,3.8,0,1,1,3.88-3.73h0a3.78,3.78,0,0,1-3.88,3.71Z"/><path class="cls-46" d="M176.63,302.7l-6.72-.14-6-7.06-3.22-3.76-9.78-11.42-3.18-3.73,6.72.14,9.2,10.76,7,8.16,3.79,4.43Z"/><path class="cls-47" d="M218.85,303.58v-.1L199.29,280.6l-2.65-3.09,5.5.2,22.21,26Z"/><path class="cls-8" d="M201.26,303.22l-24.63-.52-2.24-2.62,1.91-1.94h0L199.08,301Z"/><path class="cls-8" d="M218.85,303.48v.1l-5.55-.11-13.92-14.23,0-.06-.25-.23a2.8,2.8,0,0,0-.53-.37,3.15,3.15,0,0,0-1-.37,1,1,0,0,0-.25,0,2.56,2.56,0,0,0-.39,0l-10.53-.22,10.25-10.39,2.65,3.1Z"/><path class="cls-46" d="M200.3,291.64l0,1.18a3.44,3.44,0,0,1-3.51,3.37h0l-26.16-.54-2.72-3.18,3,.16,1.94.11h.07l3.75.2,2.85.13,1.69.06c2.06.06,4,.09,5.78.06.77,0,1.5-.05,2.21-.09h0l1-.06q1-.07,2-.21l1.12-.17a17.25,17.25,0,0,0,2.12-.52l.32-.1a9.47,9.47,0,0,0,1-.43l.28-.15a4.93,4.93,0,0,0,1.87-1.61,1.59,1.59,0,0,0,.13-.22,1.55,1.55,0,0,0,.12-.22,1.86,1.86,0,0,0,.1-.25l.06.07a3.35,3.35,0,0,1,.78,1.37,3.5,3.5,0,0,1,.12.63A2.82,2.82,0,0,1,200.3,291.64Z"/><path class="cls-8" d="M199.33,289.17c-2.09,5.29-15.37,4.16-31.45,3.29l-.54-.62-3.72-4.36a3.64,3.64,0,0,1,.57,0l32.74.68A3.47,3.47,0,0,1,199.33,289.17Z"/><path class="cls-48" d="M150.51,289.77l-4.58,5.64a3.8,3.8,0,1,1,2.85-7.05A3.85,3.85,0,0,1,150.51,289.77Z"/><path class="cls-49" d="M224.35,303.69l-.74,35.79a5,5,0,0,1-5.15,4.94h0l-49.4-1,.85-40.83Z"/><line class="cls-45" x1="127.4" y1="297.17" x2="126.02" y2="295.92"/><line class="cls-45" x1="163.74" y1="329.75" x2="135.6" y2="339.03"/><line class="cls-45" x1="154.66" y1="276.73" x2="154.42" y2="276.73"/><line class="cls-45" x1="147.7" y1="276.59" x2="147.09" y2="276.57"/><path class="cls-46" d="M224.22,309.85l-54.85,18.7-.31,14.84,49.07,1a5.37,5.37,0,0,0,5.48-5.25h0Z"/><line class="cls-50" x1="169.91" y1="302.56" x2="169.06" y2="343.39"/><path class="cls-47" d="M151.16,292a3.81,3.81,0,0,1-3.88,3.73h0a3.72,3.72,0,0,1-1.35-.29l4.58-5.64A3.83,3.83,0,0,1,151.16,292Z"/><line class="cls-45" x1="145.93" y1="295.41" x2="144.22" y2="297.52"/><line class="cls-45" x1="151.79" y1="288.18" x2="150.51" y2="289.77"/><path class="cls-47" d="M213.29,303.46l-12-.25L199.08,301l-22.77-2.88,2.29-2.32,18.16.37a3.43,3.43,0,0,0,3.52-3.36h0l0-1.18a2.67,2.67,0,0,0,0-.4,3.19,3.19,0,0,0-.12-.63,3.47,3.47,0,0,0-.78-1.37Z"/><path class="cls-46" d="M200.3,291.64l0,1.18a3.43,3.43,0,0,1-3.51,3.37h0l-14.68-.3,7.14-2.78h0l10.11-3.93.06.06a3.39,3.39,0,0,1,.9,2A2.67,2.67,0,0,1,200.3,291.64Z"/><line class="cls-50" x1="162.42" y1="287.46" x2="197.57" y2="288.2"/><g class="cls-51"><path class="cls-52" d="M187.12,347.76a8.1,8.1,0,0,0,8.1,8,.07.07,0,0,0,.07-.07V339.8a.07.07,0,0,0-.07-.07A8.11,8.11,0,0,0,187.12,347.76Z"/><path class="cls-52" d="M241.83,341.61l-6.3,3.68H223.46a.07.07,0,0,1-.07-.06h0V343a3.19,3.19,0,0,0-2.92-3.27,3,3,0,0,0-3.06,2.87V344h0l-7.36-4.28H195.36a.07.07,0,0,0-.06.07h0v15.93a.07.07,0,0,0,.06.07h14.7l7.35-3.94h0v1a2.94,2.94,0,0,0,.87,2.08,3,3,0,0,0,2.12.87,3,3,0,0,0,3-2.95v-2.63h12.13l3.86,2.26a16.3,16.3,0,0,0,8.2,2.22h0a3,3,0,0,0,3-3v-5.08a5.83,5.83,0,0,0-5.82-5.83h0A5.86,5.86,0,0,0,241.83,341.61Z"/></g><path class="cls-15" d="M217.18,350.76a3,3,0,0,1-2.12-.87,2.91,2.91,0,0,1-.87-2.08v-1l.29-.16v-7.5l-.29-.17v-1.35a3,3,0,0,1,6,0v10.19A3,3,0,0,1,217.18,350.76Z"/><path class="cls-53" d="M214.19,346.81V339l.29.17v7.5Z"/><path class="cls-15" d="M192.06,350.76a8,8,0,1,1-.18-16.07h.18Z"/><path class="cls-11" d="M247.36,349.67H240l-7.68-4.49H220.17v-4.93h12.12l7.68-4.48h7.4Z"/><path class="cls-15" d="M214.48,339.15v7.5l-.3.15-7.36,3.95H192.07V334.68h14.74l7.37,4.3Z"/><line class="cls-54" x1="192.06" y1="334.68" x2="192.06" y2="350.75"/><line class="cls-55" x1="194.87" y1="342.72" x2="204.98" y2="342.72"/><line class="cls-55" x1="194.87" y1="342.72" x2="204.98" y2="342.72"/><line class="cls-54" x1="194.87" y1="342.72" x2="204.98" y2="342.72"/><circle class="cls-15" cx="31.04" cy="158.26" r="27.26"/><path class="cls-56" d="M38.25,164.53a2.31,2.31,0,0,0-2.78-.35l-.52-.51,6.14-6.15a5.17,5.17,0,0,1-1.62-.5,5.43,5.43,0,0,0,7.86-5,5.29,5.29,0,0,0-.65-2.47l-.14.1a3.16,3.16,0,0,1-5.28,3.1,2.55,2.55,0,0,1-.26-.3,3.16,3.16,0,0,1,.57-4.44,3.21,3.21,0,0,1,2.81-.54l.09-.12a5.23,5.23,0,0,0-2.47-.65,5.31,5.31,0,0,0-4,1.58A5.42,5.42,0,0,0,36.52,153h0l-5.27,5.27a1.23,1.23,0,0,1-1.74,0h0L24.31,153a1.14,1.14,0,0,1-.32-1.11,2.28,2.28,0,0,0-.58-2.22l-2.17-2.17a1.21,1.21,0,0,0-1.71,0h0l-1.59,1.59a1.21,1.21,0,0,0,0,1.72L20.1,153a2.3,2.3,0,0,0,2.23.58,1.15,1.15,0,0,1,1.11.32l5.21,5.21a1.22,1.22,0,0,1,0,1.73l-5.28,5.28a5.44,5.44,0,0,0-5.59,2.78,5.32,5.32,0,0,0,0,5.24,5.44,5.44,0,0,0,10.13-1.8,5.38,5.38,0,0,1,1.41-3.06l4.74-4.74.51.52a2.31,2.31,0,0,0,.35,2.78l7.49,7.49a2.34,2.34,0,0,0,3.3,0h0a2.33,2.33,0,0,0,0-3.31Zm-13.46,9.19a3.16,3.16,0,1,1,0-4.47,3.15,3.15,0,0,1,0,4.47Z"/><rect class="cls-30" x="27.86" y="146.35" width="1.23" height="18.35" transform="translate(-101.64 65.69) rotate(-45)"/><rect class="cls-30" x="36.9" y="158.66" width="4.68" height="15.26" rx="1.07" ry="1.07" transform="translate(-106.09 76.45) rotate(-45)"/><path class="cls-11" d="M16,146.32l3.3-3.3h0l3.87,3.86a1.15,1.15,0,0,1,0,1.63h0l-1.68,1.68a1.15,1.15,0,0,1-1.63,0h0L16,146.32Z"/><path class="cls-11" d="M26.83,167.05a5.43,5.43,0,1,0-1.54,4.66A5.44,5.44,0,0,0,26.83,167.05Zm-7.61,3a3.16,3.16,0,1,1,4.47,0,3.16,3.16,0,0,1-4.47,0Z"/><path class="cls-19" d="M40,153.89,26.83,167.05a5.42,5.42,0,0,0-4.57-4.58l13.16-13.15A5.43,5.43,0,0,0,40,153.89Z"/><path class="cls-11" d="M45.57,145.93a5.18,5.18,0,0,1,.66,2.47,5.44,5.44,0,1,1-2.86-4.68l-.09.13a3.16,3.16,0,0,0-3.38,5,3.58,3.58,0,0,0,.26.29l.3.28a3.17,3.17,0,0,0,4.44-.58,3.13,3.13,0,0,0,.54-2.8Z"/></g></g></svg>